# xmcd CD database file
#
# Track frame offsets:
#	182
#	27932
#	47530
#	71360
#	86880
#	115367
#	131287
#	145640
#	165407
#	186332
#	203392
#	218105
#	232002
#	258410
#	285810
#	317207
#
# Disc length: 4447 seconds
#
# Revision: 0
# Processed by: cddbd v1.5.2PL0 Copyright (c) Steve Scherf et al.
# Submitted via: CDex 1.51
#
DISCID=da115d10
DTITLE=Diverse - Summertime
DYEAR=1994
DGENRE=Jazz
TTITLE0=Expansions
TTITLE1=Samba de Orfeu
TTITLE2=Watermelon Man
TTITLE3=Norwegian Wood
TTITLE4=The Sidewinder
TTITLE5=I Think I'll Call It Morning
TTITLE6=Guarachi Guaro (Soul Sauce)
TTITLE7=So What
TTITLE8=Birdland After Dark
TTITLE9=Tijuana Gift Shop
TTITLE10=Titoros
TTITLE11=Night in Tunisia
TTITLE12=Medusa Seducer
TTITLE13=Milestones
TTITLE14=Skunk Funk
TTITLE15=Casa Forte
EXTD=YEAR: 1994
EXTT0=
EXTT1=
EXTT2=
EXTT3=
EXTT4=
EXTT5=
EXTT6=
EXTT7=
EXTT8=
EXTT9=
EXTT10=
EXTT11=
EXTT12=
EXTT13=
EXTT14=
EXTT15=
PLAYORDER=
